<?xml version="1.0" encoding="UTF-8"?>
<svg version="1.1" xmlns="http://www.w3.org/2000/svg" width="512" height="512">
<path d="M0 0 C1.14523132 -0.0071553 2.29046265 -0.01431061 3.47039795 -0.02168274 C4.72292862 -0.02437164 5.97545929 -0.02706055 7.26594543 -0.02983093 C8.6016711 -0.03609923 9.93739502 -0.04274635 11.27311707 -0.04974365 C15.65588679 -0.07074525 20.0386567 -0.0811433 24.42146301 -0.09111023 C25.93313935 -0.09515943 27.4448155 -0.0992764 28.95649147 -0.10346031 C36.06051108 -0.12250447 43.16452037 -0.13673637 50.26856059 -0.14507228 C58.45497596 -0.15483813 66.64112047 -0.18114366 74.82744044 -0.22157317 C81.16391732 -0.25178739 87.5003168 -0.26654622 93.83686429 -0.26985329 C97.61714639 -0.27219799 101.39713888 -0.28108198 105.17734337 -0.30631447 C108.73726962 -0.3296932 112.2967176 -0.33378962 115.8567009 -0.32355309 C117.77415836 -0.32282619 119.69159207 -0.34184884 121.60894775 -0.36161804 C128.78571468 -0.31863275 134.12600948 0.56488992 140.37849426 4.14717102 C141.51286926 4.78654602 142.64724426 5.42592102 143.81599426 6.08467102 C152.85921106 12.97572639 159.10414749 24.57700451 165.39363098 33.88764954 C169.64160277 40.15142671 174.09244151 46.23288965 178.68464661 52.2480011 C182.29433506 56.97885262 182.29433506 56.97885262 183.37849426 59.14717102 C184.86440347 59.14937086 184.86440347 59.14937086 186.38033104 59.15161514 C210.50155509 59.18823583 234.62264057 59.24771918 258.74374962 59.33107376 C270.40862123 59.37085628 282.07342545 59.40325282 293.73835754 59.41816711 C303.90738765 59.43118765 314.07626944 59.45816276 324.24521601 59.50178409 C329.62791596 59.52438966 335.01043303 59.54008223 340.39318466 59.53905487 C345.46413849 59.53830774 350.53468818 59.55628026 355.60553741 59.58833885 C357.46220938 59.59682693 359.31892673 59.59859523 361.17560959 59.59297371 C373.7793143 59.55990907 384.03084636 60.10842423 393.62458801 69.23701477 C403.25781554 79.72843629 402.66827636 92.18975219 402.57380676 105.65498352 C402.57006915 107.23252685 402.56722572 108.81007252 402.56523132 110.38761902 C402.55765373 114.50738618 402.53805688 118.62700871 402.51582336 122.74671936 C402.49523722 126.96351669 402.4862025 131.18033775 402.47615051 135.39717102 C402.45480448 143.64723684 402.42074096 151.89718586 402.37849426 160.14717102 C403.64330627 160.12622375 404.90811829 160.10527649 406.21125793 160.08369446 C410.96179107 160.01058784 415.71227585 159.9651174 420.46321106 159.92744446 C422.50854388 159.90748842 424.55382084 159.88031364 426.59895325 159.84541321 C442.18220323 159.58639072 455.7142688 159.87148317 468.37849426 170.14717102 C469.00368958 170.64861633 469.62888489 171.15006165 470.27302551 171.66670227 C477.36690114 178.0187347 481.94364512 187.33882894 482.65193176 196.79951477 C482.69164171 198.22774939 482.72530844 199.65616251 482.75349426 201.08467102 C482.80956848 202.1104425 482.80956848 202.1104425 482.86677551 203.15693665 C483.05722968 214.7640601 476.20968569 225.92137743 471.11042786 236.00801086 C470.4964795 237.23341544 469.88307253 238.45909139 469.27015686 239.68501282 C467.96146966 242.29970746 466.64904554 244.91247678 465.3335228 247.52373886 C463.24053009 251.67827525 461.15616021 255.83710232 459.07273865 259.9964447 C455.76510495 266.59728207 452.45171332 273.19520961 449.13587344 279.79192793 C443.22611393 291.54954401 437.3258809 303.3119405 431.42822516 315.07563174 C429.36855618 319.18335426 427.30628032 323.28975359 425.24181092 327.39506543 C418.69332936 340.41991744 412.1930616 353.46164094 405.95897484 366.64105797 C403.2334303 372.40070512 400.41422262 378.10381666 397.50349426 383.77217102 C397.16053125 384.44939524 396.81756824 385.12661945 396.46421242 385.82436562 C393.63628221 391.18377849 391.03421133 395.22366406 385.15950489 397.26655197 C378.60130857 398.76590594 371.82860645 398.42267251 365.14013672 398.40113831 C363.58189588 398.40344442 362.02365612 398.40662195 360.46541864 398.41059279 C356.19490556 398.41892899 351.92448206 398.41482082 347.65396869 398.40862036 C343.04376109 398.40409196 338.43356881 398.41108164 333.82336426 398.4165802 C324.79562154 398.42547232 315.76791208 398.4235528 306.74016806 398.41775492 C299.40110976 398.41323689 292.06206077 398.41262614 284.72300148 398.41480255 C283.15576146 398.41526225 283.15576146 398.41526225 281.55686003 398.41573124 C279.43422935 398.4163707 277.31159866 398.41701912 275.18896798 398.41767642 C255.28498576 398.4233794 235.38102197 398.41682275 215.47704277 398.40607569 C198.4073188 398.39714414 181.33762204 398.39868901 164.26789856 398.40791321 C144.43944851 398.41862318 124.61101462 398.42282594 104.78256208 398.41668868 C102.66685283 398.41605159 100.55114359 398.41542285 98.43543434 398.41480255 C97.3945084 398.414494 96.35358245 398.41418545 95.28111329 398.41386755 C87.95442545 398.4121425 80.62774788 398.41505171 73.30106163 398.41976166 C64.36693562 398.42537873 55.43284475 398.42383682 46.49872275 398.41320017 C41.94246024 398.40795399 37.38625624 398.40586868 32.8299942 398.41249847 C28.65452604 398.41848212 24.47917033 398.41514313 20.30371229 398.40454337 C18.79771026 398.4023195 17.29169863 398.40342271 15.78570285 398.40829495 C2.27336821 398.44863771 -11.38455709 398.11472628 -21.62150574 388.14717102 C-26.73601452 381.47662715 -29.86733614 375.54213357 -29.87877464 366.96794415 C-29.88522354 365.74235969 -29.89167243 364.51677524 -29.89831674 363.25405186 C-29.89537477 361.90231834 -29.89223935 360.55058522 -29.88893127 359.19885254 C-29.89266911 357.7564059 -29.89727117 356.31396128 -29.90266192 354.87151986 C-29.91489081 350.91187737 -29.91463159 346.95231938 -29.91227317 342.99266231 C-29.91186498 338.72055884 -29.92290438 334.44848245 -29.93238831 330.1763916 C-29.94899856 321.80812383 -29.95449786 313.43988423 -29.95561306 305.07160135 C-29.9565635 298.26928078 -29.9606736 291.4669695 -29.96701431 284.66465187 C-29.98462662 265.37755207 -29.99385317 246.09047452 -29.99235336 226.80336662 C-29.99227345 225.7636751 -29.99219354 224.72398358 -29.99211121 223.65278625 C-29.99202944 222.61182489 -29.99194768 221.57086352 -29.99186344 220.49835787 C-29.9910505 203.62714699 -30.01019037 186.75602539 -30.03838794 169.88484033 C-30.06711456 152.56038044 -30.08092836 135.23596409 -30.07920039 117.91147977 C-30.07853642 108.18558915 -30.08403171 98.45979212 -30.10555649 88.73392296 C-30.12376533 80.45329952 -30.12811805 72.1728121 -30.11453764 63.89217731 C-30.10800655 59.6682446 -30.1078958 55.44457287 -30.12524414 51.22066498 C-30.14097377 47.35103934 -30.13811266 43.48188163 -30.12067588 39.61226741 C-30.11760572 38.21525475 -30.12123906 36.81820718 -30.13239603 35.4212357 C-30.21619957 24.18025691 -28.34426456 16.27872204 -20.62150574 7.94013977 C-14.51410391 2.46494946 -8.10679967 0.03482155 0 0 Z M0.37849426 31.14717102 C0.37849426 123.87717102 0.37849426 216.60717102 0.37849426 312.14717102 C2.90417111 308.77960189 4.50297596 306.02064023 6.24177551 302.24873352 C7.06621155 300.47031067 7.06621155 300.47031067 7.90730286 298.65596008 C8.50189026 297.36137457 9.09645337 296.0667779 9.69099426 294.77217102 C10.31630412 293.42004983 10.94212702 292.06816579 11.56843567 290.71650696 C12.86766875 287.9114516 14.16469622 285.10539292 15.46003723 282.29853821 C18.09147381 276.59982046 20.74487488 270.91138813 23.40058899 265.22395325 C24.26186382 263.37924481 25.12245967 261.5342207 25.98298645 259.68916321 C29.0966049 253.01599218 32.2214917 246.34822444 35.35896301 239.68623352 C35.69471344 238.97330139 36.03046387 238.26036926 36.37638855 237.52583313 C38.07148024 233.92734277 39.76783181 230.32945073 41.46540833 226.73213196 C44.69814231 219.87675197 47.91051802 213.01326296 51.06990051 206.12373352 C51.65639964 204.84785092 52.24290664 203.57197194 52.829422 202.2960968 C53.90706593 199.95093889 54.97702425 197.60277642 56.0428009 195.25215149 C62.98682529 180.12653096 69.42946667 169.51495336 85.37849426 163.14717102 C91.97728902 161.13314217 98.02004092 160.85613154 104.89448547 160.86869812 C106.03654843 160.86290572 107.17861138 160.85711332 108.35528231 160.85114539 C112.17229325 160.83417494 115.98918305 160.83127137 119.80622864 160.82832336 C122.54629817 160.82012184 125.28635367 160.80894111 128.02641296 160.79788208 C133.92053721 160.77564845 139.81464421 160.76061178 145.70880127 160.75051498 C154.23067209 160.73590638 162.7524828 160.71036347 171.27431828 160.6821837 C185.10167089 160.6367553 198.92903218 160.60012418 212.75642395 160.56904602 C226.18547589 160.53884428 239.61450664 160.50448655 253.04353333 160.46455383 C254.2859578 160.46086151 254.2859578 160.46086151 255.55348176 160.45709459 C259.7088887 160.44471968 263.86429538 160.4322632 268.01970196 160.41976619 C302.4726076 160.31625757 336.92552775 160.22865927 371.37849426 160.14717102 C371.37849426 137.37717102 371.37849426 114.60717102 371.37849426 91.14717102 C368.33973223 89.62779 365.18666089 90.01531514 361.85374451 90.02932739 C360.67556768 90.02827052 360.67556768 90.02827052 359.4735893 90.02719229 C356.82679772 90.02587804 354.18006496 90.03156941 351.53327942 90.0370636 C349.64114888 90.03730562 347.74901822 90.03702885 345.85688782 90.03627014 C341.77319054 90.03516181 337.68950449 90.03660213 333.60580826 90.03963661 C327.14177859 90.0432638 320.67780767 90.03413984 314.21379089 90.02185059 C313.12315798 90.01982866 312.03252507 90.01780673 310.90884268 90.01572353 C308.67799498 90.01155453 306.44714735 90.00735177 304.21629977 90.00311601 C289.16404785 89.97497293 274.11192198 89.95480841 259.05964661 89.97212219 C248.91253074 89.98369855 238.76567767 89.97403095 228.61860883 89.94006461 C223.25029297 89.92294049 217.88245112 89.91657372 212.51413345 89.93618202 C207.45615497 89.95448737 202.39899038 89.94467864 197.34107971 89.91392517 C195.49168384 89.90758847 193.64221945 89.91134187 191.79287338 89.92632103 C180.28976008 90.01252198 170.53068217 89.43298865 161.41565895 81.42210102 C159.51222594 79.45642572 157.97311875 77.37369028 156.37849426 75.14717102 C155.76119446 74.29034729 155.76119446 74.29034729 155.13142395 73.41621399 C152.60659291 69.90120079 150.11622387 66.36349194 147.64411926 62.81123352 C143.81054706 57.31179994 139.87046212 51.8909017 135.91902161 46.4757843 C132.69577 42.0388075 129.62897199 37.53356871 126.67097473 32.91474915 C125.48494354 31.00954957 125.48494354 31.00954957 123.37849426 30.14717102 C121.77384148 30.05237696 120.1652657 30.02086998 118.55781555 30.02018738 C117.5398439 30.01736755 116.52187225 30.01454773 115.47305298 30.01164246 C114.35194626 30.01366669 113.23083954 30.01569092 112.07575989 30.01777649 C110.89849838 30.01602417 109.72123688 30.01427185 108.50830078 30.01246643 C105.27490319 30.00881224 102.04154634 30.00967883 98.80814934 30.01284552 C95.42847989 30.01537267 92.04881322 30.01303058 88.66914368 30.01145935 C82.99299122 30.0096387 77.31685177 30.01204124 71.64070129 30.01679993 C65.07304229 30.02224235 58.50541432 30.02047962 51.93775606 30.01497352 C46.30460739 30.01043943 40.67146807 30.0097933 35.03831816 30.01241219 C31.67138377 30.01397333 28.30446398 30.01417317 24.93753052 30.0108757 C21.18540827 30.00834795 17.43334637 30.01219157 13.68122864 30.01777649 C12.56012192 30.01575226 11.4390152 30.01372803 10.28393555 30.01164246 C8.75697807 30.01587219 8.75697807 30.01587219 7.19917297 30.02018738 C6.31131859 30.0205644 5.4234642 30.02094143 4.50870514 30.02132988 C2.32457156 30.01009512 2.32457156 30.01009512 0.37849426 31.14717102 Z M90.37849426 195.14717102 C88.80106419 197.49715995 87.55158336 199.63155152 86.31599426 202.14717102 C85.9422467 202.88008362 85.56849915 203.61299622 85.1834259 204.36811829 C80.2343578 214.20739639 75.6951357 224.25108335 71.09735107 234.25761414 C67.90926036 241.18532851 64.65619246 248.08218187 61.4016571 254.97886658 C55.07813993 268.37977387 48.80899621 281.80465136 42.57771301 295.24873352 C39.25009739 302.42770876 35.91093717 309.6012584 32.56599426 316.77217102 C32.28316589 317.37874542 32.00033752 317.98531982 31.7089386 318.61027527 C28.13638036 326.2704546 24.54514659 333.92161547 20.93708801 341.56513977 C20.38129311 342.74324219 20.38129311 342.74324219 19.81427002 343.94514465 C17.99726289 347.79638462 16.17828719 351.64667088 14.35578918 355.49531555 C13.69921909 356.88574193 13.04272114 358.27620238 12.38630676 359.66670227 C11.92803749 360.63158821 11.92803749 360.63158821 11.46051025 361.6159668 C9.99915044 364.26977354 9.99915044 364.26977354 9.37849426 367.14717102 C128.50849426 367.14717102 247.63849426 367.14717102 370.37849426 367.14717102 C378.18925226 352.36455187 378.18925226 352.36455187 385.78083801 337.47529602 C386.45295067 336.1325058 386.45295067 336.1325058 387.13864136 334.7625885 C388.06942542 332.90168899 388.99923832 331.04030338 389.92805481 329.17842102 C391.30894588 326.41129507 392.69409066 323.64632878 394.07966614 320.88154602 C398.14653974 312.75022817 402.17759306 304.60687757 406.06507874 296.38807678 C411.0498884 285.84999959 416.23255079 275.42216044 421.49903297 265.02288055 C422.76523583 262.52212595 424.02956873 260.02043463 425.29333496 257.51844788 C426.14656826 255.82957317 426.99982462 254.14071012 427.85310364 252.45185852 C428.2792587 251.6083849 428.70541376 250.76491127 429.14448261 249.89587784 C431.33901212 245.55478796 433.53868712 241.21641966 435.74739075 236.88252258 C437.91840184 232.62161278 440.07566517 228.35399257 442.22390175 224.08155823 C443.0366051 222.47151876 443.85431991 220.86399819 444.67726707 219.25917053 C445.81951173 217.03025398 446.94396818 214.79317701 448.06477356 212.55342102 C448.40282013 211.90406586 448.7408667 211.25471069 449.0891571 210.5856781 C451.21440066 206.27799281 451.84926321 202.92635768 451.37849426 198.14717102 C449.18533742 194.62245467 447.21516202 192.66159226 443.37849426 191.14717102 C440.59038765 190.84560671 440.59038765 190.84560671 437.48383522 190.88990211 C436.27083295 190.88345322 435.05783069 190.87700433 433.80807078 190.87036002 C432.46017645 190.87330236 431.11228252 190.8764378 429.76438904 190.87974548 C428.3339048 190.87600984 426.90342261 190.87140867 425.47294366 190.86601484 C421.53719529 190.85375876 417.60153174 190.85404836 413.66576862 190.85640359 C409.42299903 190.8568111 405.18025687 190.84577897 400.9375 190.83628845 C392.62343915 190.81966339 384.30940666 190.81417823 375.99533059 190.8130637 C369.23870296 190.81211397 362.48208471 190.80800747 355.72546005 190.80166245 C336.57735951 190.78404623 317.42928141 190.77482421 298.28117271 190.77632339 C297.2485232 190.77640331 296.21587368 190.77648322 295.15193176 190.77656555 C294.11802431 190.77664731 293.08411685 190.77672907 292.01887886 190.77681331 C275.25867811 190.77762641 258.49856719 190.75848378 241.73839243 190.73028882 C224.53718164 190.70157979 207.33601469 190.68774742 190.13477933 190.68947637 C180.47434724 190.69014094 170.81400933 190.68461938 161.15359879 190.66312027 C152.92920142 190.64493455 144.70494092 190.64053963 136.48053218 190.65413912 C132.28331296 190.6606819 128.08635651 190.66073898 123.88916206 190.64343262 C120.04736836 190.6277544 116.20604694 190.63051121 112.36426513 190.64800088 C110.97397551 190.65108242 109.5836511 190.64739504 108.19340248 190.63628073 C98.41289945 190.35509788 98.41289945 190.35509788 90.37849426 195.14717102 Z " fill="#000000" transform="translate(29.621505737304688,56.85282897949219)"/>
</svg>
