<?xml version="1.0" encoding="UTF-8"?>
<svg version="1.1" xmlns="http://www.w3.org/2000/svg" width="512" height="512">
<path d="M0 0 C25.92570597 20.46893153 42.49016798 50.81123201 46.80200195 83.40283203 C50.57610452 116.19848194 42.84121323 149.95069387 22.45019531 176.36865234 C20.84380958 178.34228334 19.22028989 180.30216882 17.57519531 182.24365234 C16.90875 183.06091797 16.24230469 183.87818359 15.55566406 184.72021484 C8.20062748 193.43840484 -0.95813394 200.04422333 -10.20996094 206.61474609 C-12.48055123 208.19893345 -12.48055123 208.19893345 -14.42480469 210.24365234 C-12.62462891 210.91847656 -12.62462891 210.91847656 -10.78808594 211.60693359 C7.61656561 218.65004401 25.00466043 227.06924178 40.57519531 239.24365234 C41.52394531 239.98228516 42.47269531 240.72091797 43.45019531 241.48193359 C50.45278007 247.08201203 57.04392172 253.10821351 63.57519531 259.24365234 C64.21070313 259.82501953 64.84621094 260.40638672 65.50097656 261.00537109 C92.46378622 286.55247237 109.80296395 323.47877877 117.32519531 359.36865234 C117.62345215 360.75068848 117.62345215 360.75068848 117.92773438 362.16064453 C122.36516028 384.78923324 121.92354543 408.04110328 121.89086914 430.99487305 C121.88499399 435.46421003 121.90225607 439.93314332 121.92521381 444.40241337 C121.93994929 447.88291307 121.94082475 451.36331428 121.93770409 454.84383965 C121.93821423 456.49317686 121.9433938 458.14252002 121.95351601 459.79182625 C121.96590338 462.08471604 121.95908326 464.37680015 121.94750977 466.66967773 C121.94813919 467.96740616 121.94876862 469.26513458 121.94941711 470.60218811 C121.52001319 474.78061662 120.64332608 477.58410641 118.57519531 481.24365234 C114.26042029 484.72215697 111.36437453 485.74393603 105.8565979 485.74701691 C105.20313692 485.75283067 104.54967594 485.75864443 103.87641311 485.76463437 C101.68920362 485.77921945 99.50311905 485.7653575 97.31591797 485.75158691 C95.73108662 485.75619645 94.14625955 485.76254973 92.56144142 485.77049589 C88.20826051 485.78720516 83.85543004 485.77893565 79.50224781 485.76655102 C74.80687387 485.75750938 70.11156065 485.77146585 65.41619873 485.7824707 C56.21871061 485.80026998 47.02135295 485.79640967 37.82385969 485.78482014 C30.34978634 485.77579163 22.8757496 485.77455929 15.40167236 485.77891541 C14.33847892 485.77952834 13.27528548 485.78014127 12.17987406 485.78077278 C10.02010964 485.78205166 7.86034523 485.78334851 5.70058084 485.78466314 C-14.55807037 485.79607307 -34.8166492 485.78294876 -55.07528853 485.76146168 C-72.46331454 485.74359033 -89.85123373 485.74669432 -107.23925781 485.76513672 C-127.42473675 485.78653614 -147.61015225 485.79497439 -167.79564095 485.78268766 C-169.9475212 485.78141345 -172.09940146 485.78015597 -174.25128174 485.77891541 C-175.31008588 485.7782983 -176.36889003 485.7776812 -177.45977914 485.7770454 C-184.92606208 485.77358971 -192.39230483 485.77942555 -199.85858154 485.78883362 C-208.95579748 485.80004465 -218.05287534 485.79703239 -227.15007544 485.77571064 C-231.79284866 485.76518818 -236.43539155 485.76109875 -241.07816315 485.77430725 C-245.32697022 485.78621225 -249.5753331 485.77970004 -253.82409978 485.75839704 C-255.36237055 485.75392293 -256.90067872 485.75621542 -258.4389255 485.76590019 C-260.52855441 485.77804889 -262.61665816 485.76560737 -264.70620728 485.74701691 C-265.86717737 485.7463675 -267.02814747 485.74571809 -268.22429848 485.745049 C-272.17322304 485.12640387 -274.3316258 483.73739626 -277.42480469 481.24365234 C-280.20766834 476.31789999 -280.79984413 472.2907851 -280.79711914 466.68554688 C-280.80259514 465.60308182 -280.80259514 465.60308182 -280.80818176 464.49874878 C-280.81624938 462.12441027 -280.80268496 459.75076389 -280.78808594 457.37646484 C-280.78756587 455.69758098 -280.78808924 454.0186965 -280.78959656 452.33981323 C-280.78950693 448.81434055 -280.77911673 445.28909693 -280.76098633 441.76367188 C-280.73861052 437.322827 -280.73789188 432.88232202 -280.74423122 428.44143677 C-280.8045357 372.88078122 -273.34737058 320.84139572 -237.42480469 276.24365234 C-237.01294922 275.7302832 -236.60109375 275.21691406 -236.17675781 274.68798828 C-225.75175487 261.77822899 -214.33626203 250.38010697 -201.03125 240.44873047 C-199.58321274 239.36248246 -198.15501691 238.24990538 -196.72949219 237.13427734 C-181.63038438 225.59061694 -162.71745958 215.56515195 -144.42480469 210.24365234 C-147.62518243 207.66193499 -150.86074252 205.13372581 -154.13134766 202.64160156 C-162.36861468 196.35697905 -169.82778642 190.26669274 -176.42480469 182.24365234 C-177.17632812 181.36451172 -177.92785156 180.48537109 -178.70214844 179.57958984 C-200.28336524 153.19118257 -209.09785396 119.76442215 -205.99121094 86.11865234 C-203.16656158 60.55115844 -193.06845898 36.84374523 -176.42480469 17.24365234 C-175.37292969 15.98294922 -175.37292969 15.98294922 -174.29980469 14.69677734 C-130.53850025 -36.2441161 -51.86532013 -39.82679964 0 0 Z M-146.42480469 25.24365234 C-147.33359375 26.06220703 -148.24238281 26.88076172 -149.17871094 27.72412109 C-167.09966674 44.59823386 -178.84113262 69.24864031 -179.62792969 93.99365234 C-179.78952957 104.82804935 -179.29301486 114.73462318 -176.42480469 125.24365234 C-176.09609375 126.46181641 -175.76738281 127.67998047 -175.42871094 128.93505859 C-171.06160172 143.42660787 -163.62098185 156.06535654 -153.42480469 167.24365234 C-152.7403125 168.00935547 -152.05582031 168.77505859 -151.35058594 169.56396484 C-134.84281226 187.07868221 -110.4895654 198.70019352 -86.35839844 199.57958984 C-73.47012848 199.75786855 -61.71939467 199.22438477 -49.42480469 195.24365234 C-48.29300781 194.88142578 -47.16121094 194.51919922 -45.99511719 194.14599609 C-19.8632047 184.90269371 -0.03048266 165.47575376 11.88769531 140.68115234 C22.23507212 117.00543699 23.91631693 90.43910533 14.88769531 66.05615234 C9.48078747 52.33131576 2.56733853 41.08619073 -7.42480469 30.24365234 C-7.98425781 29.59138672 -8.54371094 28.93912109 -9.12011719 28.26708984 C-25.57774687 10.08614815 -51.27439513 1.09432915 -75.04589844 -0.56494141 C-101.10410522 -1.83344761 -127.35080644 7.31469665 -146.42480469 25.24365234 Z M-205.42480469 280.24365234 C-235.19319893 309.86707064 -250.26174991 351.12394024 -253.42480469 392.24365234 C-253.42480469 414.02365234 -253.42480469 435.80365234 -253.42480469 458.24365234 C-138.58480469 458.24365234 -23.74480469 458.24365234 94.57519531 458.24365234 C96.07020215 410.44636187 96.07020215 410.44636187 90.38769531 362.55615234 C90.17411377 361.61247803 89.96053223 360.66880371 89.74047852 359.6965332 C86.10583973 344.36044476 80.14642714 330.03448745 72.57519531 316.24365234 C72.0533667 315.29280762 72.0533667 315.29280762 71.52099609 314.32275391 C61.68845057 296.6736722 48.38347339 279.91331055 32.57519531 267.24365234 C31.25068359 266.14537109 31.25068359 266.14537109 29.89941406 265.02490234 C-41.2159302 207.91575676 -139.55909196 217.02254189 -205.42480469 280.24365234 Z " fill="#000000" transform="translate(335.4248046875,26.75634765625)"/>
</svg>
